<svg width="17" height="17" viewBox="0 0 17 17" fill="none" xmlns="http://www.w3.org/2000/svg">
<path d="M3.57439e-06 9.64798C3.57439e-06 11.5 3.13453 13 7 13C10.8655 13 14 11.5 14 9.64798V8.20997C14 8.17032 13.9902 8.13147 13.9716 8.09794C13.953 8.06441 13.9264 8.03757 13.8949 8.02055C13.8634 8.00352 13.8283 7.99701 13.7937 8.00176C13.7591 8.00651 13.7264 8.02233 13.6994 8.04739C12.2721 9.36893 9.57895 10.067 7 10.067C4.42105 10.067 1.72716 9.36893 0.299898 8.04739C0.272959 8.02224 0.240277 8.00633 0.205678 8.00153C0.171078 7.99674 0.135993 8.00325 0.104529 8.0203C0.0730649 8.03736 0.046524 8.06426 0.0280128 8.09785C0.00950157 8.13143 -0.000213957 8.17033 3.57439e-06 8.20997V9.64798Z" fill="#FD7E14"/>
<path d="M7 6.65398C4.42105 6.65398 1.72716 6.09563 0.299898 5.03791C0.272959 5.01779 0.240277 5.00506 0.205678 5.00123C0.171078 4.99739 0.135993 5.0026 0.104529 5.01624C0.0730649 5.02988 0.046524 5.0514 0.0280128 5.07826C0.00950157 5.10513 -0.000213957 5.13624 3.57439e-06 5.16794V6.31883C3.57439e-06 7.80018 3.13453 9 7 9C10.8655 9 14 7.80018 14 6.31883L14 5.5C13.9999 5.46834 13.5187 5.52672 13.5 5.5C13.4813 5.47328 13.8048 6.02924 13.6994 5.54687C13.8048 6.02924 13.7339 5.31649 13.6994 5.32031C13.4058 5.81755 13.592 5.40577 13.565 5.42578C13.5214 5.45807 13.611 5.10335 13.565 5.1347C12.107 6.12984 9.50018 6.65398 7 6.65398Z" fill="#FD7E14"/>
<path d="M7 6C10.866 6 14 4.65685 14 3C14 1.34315 10.866 0 7 0C3.13401 0 0 1.34315 0 3C0 4.65685 3.13401 6 7 6Z" fill="#FD7E14"/>
<mask id="path-4-outside-1_407_1673" maskUnits="userSpaceOnUse" x="5" y="5" width="12" height="12" fill="black">
<rect fill="white" x="5" y="5" width="12" height="12"/>
<path fill-rule="evenodd" clip-rule="evenodd" d="M11.5068 15.0552C10.9019 15.6601 10.0814 16 9.22581 16C8.37027 16 7.54978 15.6601 6.94482 15.0552C6.33986 14.4502 6 13.6297 6 12.7742C6 11.9186 6.33986 11.0981 6.94482 10.4932L8.36542 9.07259L8.3655 9.07267L12.9274 13.6346L11.5068 15.0552ZM10.4932 6.94482L9.07253 8.36548L9.07261 8.36557L13.6345 12.9275L15.0552 11.5068C15.6601 10.9019 16 10.0814 16 9.22581C16 8.37027 15.6601 7.54978 15.0552 6.94482C14.4502 6.33986 13.6297 6 12.7742 6C11.9186 6 11.0981 6.33986 10.4932 6.94482ZM12.5222 7.95823C12.7729 7.90837 13.0327 7.93398 13.2689 8.03183C13.524 8.13754 13.8165 8.01643 13.9222 7.76132C14.0279 7.50622 13.9068 7.21372 13.6517 7.10801C13.2328 6.93442 12.7718 6.88899 12.3271 6.97744C11.8824 7.0659 11.4739 7.28427 11.1533 7.60493C10.9581 7.80022 10.9581 8.1168 11.1534 8.31204C11.3487 8.50728 11.6653 8.50724 11.8605 8.31196C12.0412 8.1312 12.2715 8.0081 12.5222 7.95823Z"/>
</mask>
<path fill-rule="evenodd" clip-rule="evenodd" d="M11.5068 15.0552C10.9019 15.6601 10.0814 16 9.22581 16C8.37027 16 7.54978 15.6601 6.94482 15.0552C6.33986 14.4502 6 13.6297 6 12.7742C6 11.9186 6.33986 11.0981 6.94482 10.4932L8.36542 9.07259L8.3655 9.07267L12.9274 13.6346L11.5068 15.0552ZM10.4932 6.94482L9.07253 8.36548L9.07261 8.36557L13.6345 12.9275L15.0552 11.5068C15.6601 10.9019 16 10.0814 16 9.22581C16 8.37027 15.6601 7.54978 15.0552 6.94482C14.4502 6.33986 13.6297 6 12.7742 6C11.9186 6 11.0981 6.33986 10.4932 6.94482ZM12.5222 7.95823C12.7729 7.90837 13.0327 7.93398 13.2689 8.03183C13.524 8.13754 13.8165 8.01643 13.9222 7.76132C14.0279 7.50622 13.9068 7.21372 13.6517 7.10801C13.2328 6.93442 12.7718 6.88899 12.3271 6.97744C11.8824 7.0659 11.4739 7.28427 11.1533 7.60493C10.9581 7.80022 10.9581 8.1168 11.1534 8.31204C11.3487 8.50728 11.6653 8.50724 11.8605 8.31196C12.0412 8.1312 12.2715 8.0081 12.5222 7.95823Z" fill="#FEB272"/>
<path d="M11.5068 15.0552L10.7997 14.3481H10.7997L11.5068 15.0552ZM6.94482 15.0552L6.23771 15.7623H6.23771L6.94482 15.0552ZM6.94482 10.4932L6.23771 9.78608L6.23771 9.78609L6.94482 10.4932ZM8.36542 9.07259L9.07253 8.36548C8.682 7.97496 8.04884 7.97496 7.65831 8.36548L8.36542 9.07259ZM12.9274 13.6346L13.6345 14.3417C14.025 13.9512 14.025 13.318 13.6345 12.9275L12.9274 13.6346ZM9.07253 8.36548L8.36542 7.65838C7.9749 8.0489 7.9749 8.68207 8.36542 9.07259L9.07253 8.36548ZM10.4932 6.94482L9.78609 6.23771L9.78608 6.23771L10.4932 6.94482ZM13.6345 12.9275L12.9274 13.6346C13.3179 14.0251 13.9511 14.0251 14.3416 13.6346L13.6345 12.9275ZM15.0552 11.5068L14.3481 10.7997V10.7997L15.0552 11.5068ZM15.0552 6.94482L15.7623 6.23771V6.23771L15.0552 6.94482ZM13.2689 8.03183L12.8861 8.95566L12.8861 8.95566L13.2689 8.03183ZM12.5222 7.95823L12.7173 8.93902L12.5222 7.95823ZM13.6517 7.10801L13.2689 8.03183L13.2689 8.03183L13.6517 7.10801ZM11.1533 7.60493L11.8605 8.31196L11.1533 7.60493ZM11.1534 8.31204L10.4464 9.01923L10.4464 9.01923L11.1534 8.31204ZM11.8605 8.31196L12.5677 9.01899L12.5677 9.01899L11.8605 8.31196ZM9.22581 17C10.3466 17 11.4214 16.5548 12.2139 15.7623L10.7997 14.3481C10.3823 14.7655 9.81614 15 9.22581 15V17ZM6.23771 15.7623C7.03021 16.5548 8.10506 17 9.22581 17V15C8.63549 15 8.06935 14.7655 7.65193 14.3481L6.23771 15.7623ZM5 12.7742C5 13.8949 5.44522 14.9698 6.23771 15.7623L7.65193 14.3481C7.2345 13.9307 7 13.3645 7 12.7742H5ZM6.23771 9.78609C5.44522 10.5786 5 11.6534 5 12.7742H7C7 12.1839 7.2345 11.6177 7.65193 11.2003L6.23771 9.78609ZM7.65831 8.36548L6.23771 9.78608L7.65193 11.2003L9.07253 9.7797L7.65831 8.36548ZM9.07261 8.36557L9.07253 8.36548L7.65831 9.7797L7.6584 9.77978L9.07261 8.36557ZM13.6345 12.9275L9.07261 8.36557L7.6584 9.77978L12.2203 14.3417L13.6345 12.9275ZM12.2139 15.7623L13.6345 14.3417L12.2203 12.9275L10.7997 14.3481L12.2139 15.7623ZM9.77963 9.07259L11.2003 7.65193L9.78608 6.23771L8.36542 7.65838L9.77963 9.07259ZM9.77972 7.65846L9.77963 7.65838L8.36542 9.07259L8.3655 9.07267L9.77972 7.65846ZM14.3416 12.2204L9.77972 7.65846L8.3655 9.07267L12.9274 13.6346L14.3416 12.2204ZM14.3481 10.7997L12.9274 12.2204L14.3416 13.6346L15.7623 12.2139L14.3481 10.7997ZM15 9.22581C15 9.81614 14.7655 10.3823 14.3481 10.7997L15.7623 12.2139C16.5548 11.4214 17 10.3466 17 9.22581H15ZM14.3481 7.65193C14.7655 8.06935 15 8.63549 15 9.22581H17C17 8.10506 16.5548 7.03021 15.7623 6.23771L14.3481 7.65193ZM12.7742 7C13.3645 7 13.9307 7.2345 14.3481 7.65193L15.7623 6.23771C14.9698 5.44522 13.8949 5 12.7742 5V7ZM11.2003 7.65193C11.6177 7.2345 12.1839 7 12.7742 7V5C11.6534 5 10.5786 5.44522 9.78609 6.23771L11.2003 7.65193ZM13.6517 7.10801C13.2328 6.93442 12.7718 6.88899 12.3271 6.97744L12.7173 8.93902C12.7739 8.92775 12.8327 8.93354 12.8861 8.95566L13.6517 7.10801ZM12.9984 7.37851C13.1041 7.1234 13.3966 7.00229 13.6517 7.10801L12.8861 8.95566C13.6514 9.27279 14.5289 8.90946 14.846 8.14414L12.9984 7.37851ZM13.2689 8.03183C13.0138 7.92612 12.8927 7.63362 12.9984 7.37851L14.846 8.14414C15.1632 7.37881 14.7998 6.50131 14.0345 6.18418L13.2689 8.03183ZM12.5222 7.95823C12.7729 7.90837 13.0327 7.93398 13.2689 8.03183L14.0345 6.18418C13.4329 5.93487 12.7708 5.86961 12.132 5.99666L12.5222 7.95823ZM11.8605 8.31196C12.0412 8.1312 12.2715 8.0081 12.5222 7.95823L12.132 5.99666C11.4933 6.1237 10.9066 6.43734 10.4461 6.89791L11.8605 8.31196ZM11.8604 7.60485C12.0557 7.80009 12.0557 8.11668 11.8605 8.31196L10.4461 6.89791C9.8604 7.48376 9.8605 8.43351 10.4464 9.01923L11.8604 7.60485ZM11.1533 7.60493C11.3485 7.40965 11.6651 7.40961 11.8604 7.60485L10.4464 9.01923C11.0322 9.60495 11.982 9.60484 12.5677 9.01899L11.1533 7.60493ZM12.3271 6.97744C11.8824 7.0659 11.4739 7.28427 11.1533 7.60493L12.5677 9.01899C12.6085 8.97812 12.6606 8.95029 12.7173 8.93902L12.3271 6.97744Z" fill="white" mask="url(#path-4-outside-1_407_1673)"/>
</svg>
