<svg width="17" height="18" viewBox="0 0 17 18" fill="none" xmlns="http://www.w3.org/2000/svg">
<circle cx="7" cy="9" r="5.5" stroke="#FFC107" stroke-width="3"/>
<path d="M13 3V1C13 0.797769 12.8782 0.615451 12.6913 0.53806C12.5045 0.46067 12.2894 0.503448 12.1464 0.646447L9.89067 2.90223C9.89066 2.90224 9.89065 2.90224 9.89064 2.90225C9.89063 2.90226 9.89062 2.90227 9.89061 2.90228C9.64058 3.15227 9.50008 3.49133 9.5 3.84489V3.845V6C9.5 6.27614 9.72386 6.5 10 6.5H12.155H12.1551C12.5087 6.49992 12.8477 6.35942 13.0977 6.10939C13.0977 6.10937 13.0978 6.10935 13.0978 6.10933L15.3536 3.85355C15.4966 3.71055 15.5393 3.4955 15.4619 3.30866C15.3845 3.12182 15.2022 3 15 3H13Z" fill="#FFDA6A" stroke="white" stroke-linecap="round" stroke-linejoin="round"/>
<path d="M7 9L11 5" stroke="#FFDA6A" stroke-linecap="round" stroke-linejoin="round"/>
<mask id="path-4-outside-1_495_1582" maskUnits="userSpaceOnUse" x="6.64996" y="7.65234" width="11" height="11" fill="black">
<rect fill="white" x="6.64996" y="7.65234" width="11" height="11"/>
<path fill-rule="evenodd" clip-rule="evenodd" d="M16 12.8258C16 15.1307 14.1308 16.9992 11.825 16.9992C9.51917 16.9992 7.64996 15.1307 7.64996 12.8258C7.64996 10.5209 9.51917 8.65234 11.825 8.65234C14.1308 8.65234 16 10.5209 16 12.8258ZM14.0856 11.9129C14.2513 11.692 14.2066 11.3786 13.9857 11.2129C13.7648 11.0471 13.4514 11.0918 13.2857 11.3127L11.2648 14.006L11.2647 14.0061C11.2628 14.0087 11.2603 14.0108 11.2574 14.0124C11.2544 14.014 11.2512 14.0149 11.2479 14.0152C11.2445 14.0154 11.2412 14.0149 11.238 14.0138C11.235 14.0126 11.2322 14.0109 11.2299 14.0086L11.2297 14.0085L10.187 12.9661C9.99168 12.7709 9.6751 12.7709 9.47988 12.9662C9.28465 13.1615 9.28471 13.4781 9.48001 13.6733L10.5238 14.7167L10.5248 14.7177C10.6285 14.8208 10.753 14.9004 10.8901 14.9513C11.0271 15.0021 11.1735 15.0231 11.3193 15.0126C11.4651 15.0022 11.6069 14.9606 11.7353 14.8908C11.8637 14.8209 11.9757 14.7243 12.0636 14.6075L12.0642 14.6068L14.0856 11.9129Z"/>
</mask>
<path fill-rule="evenodd" clip-rule="evenodd" d="M16 12.8258C16 15.1307 14.1308 16.9992 11.825 16.9992C9.51917 16.9992 7.64996 15.1307 7.64996 12.8258C7.64996 10.5209 9.51917 8.65234 11.825 8.65234C14.1308 8.65234 16 10.5209 16 12.8258ZM14.0856 11.9129C14.2513 11.692 14.2066 11.3786 13.9857 11.2129C13.7648 11.0471 13.4514 11.0918 13.2857 11.3127L11.2648 14.006L11.2647 14.0061C11.2628 14.0087 11.2603 14.0108 11.2574 14.0124C11.2544 14.014 11.2512 14.0149 11.2479 14.0152C11.2445 14.0154 11.2412 14.0149 11.238 14.0138C11.235 14.0126 11.2322 14.0109 11.2299 14.0086L11.2297 14.0085L10.187 12.9661C9.99168 12.7709 9.6751 12.7709 9.47988 12.9662C9.28465 13.1615 9.28471 13.4781 9.48001 13.6733L10.5238 14.7167L10.5248 14.7177C10.6285 14.8208 10.753 14.9004 10.8901 14.9513C11.0271 15.0021 11.1735 15.0231 11.3193 15.0126C11.4651 15.0022 11.6069 14.9606 11.7353 14.8908C11.8637 14.8209 11.9757 14.7243 12.0636 14.6075L12.0642 14.6068L14.0856 11.9129Z" fill="#FFC107"/>
<path d="M13.9857 11.2129L14.5859 10.413L14.5859 10.413L13.9857 11.2129ZM14.0856 11.9129L14.8854 12.5131L14.0856 11.9129ZM13.2857 11.3127L12.4858 10.7125L12.4858 10.7125L13.2857 11.3127ZM11.2648 14.006L12.0609 14.6111L12.0647 14.6061L11.2648 14.006ZM11.2647 14.0061L12.0593 14.6133L12.0608 14.6112L11.2647 14.0061ZM11.2574 14.0124L11.7353 14.8908L11.7354 14.8907L11.2574 14.0124ZM11.2479 14.0152L11.1764 13.0177L11.1764 13.0177L11.2479 14.0152ZM11.238 14.0138L10.89 14.9513L10.8901 14.9513L11.238 14.0138ZM11.2299 14.0086L10.5276 14.7206L10.5326 14.7254L11.2299 14.0086ZM11.2297 14.0085L10.5227 14.7157L10.5275 14.7204L11.2297 14.0085ZM10.187 12.9661L10.894 12.2589L10.894 12.2589L10.187 12.9661ZM9.47988 12.9662L10.1871 13.6732L10.1871 13.6732L9.47988 12.9662ZM9.48001 13.6733L10.187 12.9661L10.187 12.9661L9.48001 13.6733ZM10.5238 14.7167L9.81678 15.424L9.8188 15.426L10.5238 14.7167ZM10.5248 14.7177L9.81983 15.427L9.81985 15.427L10.5248 14.7177ZM10.8901 14.9513L10.5421 15.8888L10.5421 15.8888L10.8901 14.9513ZM11.3193 15.0126L11.2479 14.0152L11.2479 14.0152L11.3193 15.0126ZM11.7353 14.8908L11.2574 14.0124L11.2574 14.0124L11.7353 14.8908ZM12.0636 14.6075L12.8625 15.2091L12.8631 15.2083L12.0636 14.6075ZM12.0642 14.6068L12.8636 15.2076L12.864 15.207L12.0642 14.6068ZM11.825 17.9992C14.6827 17.9992 17 15.6833 17 12.8258H15C15 14.5781 13.5788 15.9992 11.825 15.9992V17.9992ZM6.64996 12.8258C6.64996 15.6833 8.96724 17.9992 11.825 17.9992V15.9992C10.0711 15.9992 8.64996 14.5781 8.64996 12.8258H6.64996ZM11.825 7.65234C8.96724 7.65234 6.64996 9.96822 6.64996 12.8258H8.64996C8.64996 11.0735 10.0711 9.65234 11.825 9.65234V7.65234ZM17 12.8258C17 9.96822 14.6827 7.65234 11.825 7.65234V9.65234C13.5788 9.65234 15 11.0735 15 12.8258H17ZM13.3855 12.0127C13.1647 11.847 13.12 11.5336 13.2857 11.3127L14.8854 12.5131C15.3826 11.8504 15.2485 10.9102 14.5859 10.413L13.3855 12.0127ZM14.0856 11.9129C13.9198 12.1338 13.6064 12.1785 13.3855 12.0127L14.5859 10.413C13.9233 9.91579 12.983 10.0499 12.4858 10.7125L14.0856 11.9129ZM12.0647 14.6061L14.0856 11.9129L12.4858 10.7125L10.465 13.4058L12.0647 14.6061ZM12.0608 14.6112L12.0609 14.6111L10.4687 13.4008L10.4686 13.4009L12.0608 14.6112ZM11.7354 14.8907C11.8617 14.822 11.972 14.7275 12.0593 14.6133L10.4702 13.3989C10.5535 13.2899 10.6588 13.1996 10.7794 13.134L11.7354 14.8907ZM11.3193 15.0126C11.4651 15.0022 11.6069 14.9606 11.7353 14.8908L10.7794 13.134C10.902 13.0673 11.0373 13.0277 11.1764 13.0177L11.3193 15.0126ZM10.8901 14.9513C11.0271 15.0021 11.1734 15.0231 11.3193 15.0126L11.1764 13.0177C11.3156 13.0077 11.4553 13.0277 11.586 13.0762L10.8901 14.9513ZM10.5326 14.7254C10.6346 14.8247 10.7564 14.9016 10.89 14.9513L11.586 13.0763C11.7136 13.1236 11.8298 13.1971 11.9272 13.2919L10.5326 14.7254ZM10.5275 14.7204L10.5276 14.7206L11.9321 13.2967L11.932 13.2965L10.5275 14.7204ZM9.48001 13.6733L10.5227 14.7157L11.9367 13.3012L10.894 12.2589L9.48001 13.6733ZM10.1871 13.6732C9.99189 13.8685 9.67531 13.8686 9.48001 13.6733L10.894 12.2589C10.3081 11.6732 9.35831 11.6734 8.77264 12.2593L10.1871 13.6732ZM10.187 12.9661C10.3823 13.1613 10.3823 13.4779 10.1871 13.6732L8.77264 12.2593C8.18696 12.8452 8.18714 13.7949 8.77303 14.3806L10.187 12.9661ZM11.2307 14.0095L10.187 12.9661L8.77303 14.3806L9.81678 15.4239L11.2307 14.0095ZM11.2297 14.0085L11.2287 14.0075L9.8188 15.426L9.81983 15.427L11.2297 14.0085ZM11.238 14.0138C11.2349 14.0126 11.2321 14.0108 11.2297 14.0085L9.81985 15.427C10.0249 15.6308 10.2712 15.7882 10.5421 15.8888L11.238 14.0138ZM11.2479 14.0152C11.2445 14.0154 11.2412 14.0149 11.238 14.0138L10.5421 15.8888C10.8131 15.9893 11.1024 16.0307 11.3907 16.0101L11.2479 14.0152ZM11.2574 14.0124C11.2544 14.014 11.2512 14.0149 11.2479 14.0152L11.3907 16.0101C11.6789 15.9894 11.9595 15.9073 12.2133 15.7691L11.2574 14.0124ZM11.2648 14.006C11.2628 14.0086 11.2603 14.0108 11.2574 14.0124L12.2133 15.7691C12.4672 15.631 12.6886 15.44 12.8625 15.2091L11.2648 14.006ZM11.2648 14.0061L11.2642 14.0067L12.8631 15.2083L12.8636 15.2076L11.2648 14.0061ZM13.2857 11.3127L11.2643 14.0067L12.864 15.207L14.8854 12.5131L13.2857 11.3127Z" fill="white" mask="url(#path-4-outside-1_495_1582)"/>
</svg>
