<svg width="18" height="18" viewBox="0 0 18 18" fill="none" xmlns="http://www.w3.org/2000/svg">
<rect x="1" y="2" width="16" height="15" rx="1" stroke="#ADB5BD"/>
<rect x="3" y="8" width="3" height="3" rx="1" fill="#DEE2E6"/>
<rect x="3" y="12" width="3" height="3" rx="1" fill="#DEE2E6"/>
<rect x="7.5" y="8" width="3" height="3" rx="1" fill="#DEE2E6"/>
<rect x="7.5" y="12" width="3" height="3" rx="1" fill="#DEE2E6"/>
<rect x="12" y="8" width="3" height="3" rx="1" fill="#DEE2E6"/>
<rect x="12" y="12" width="3" height="3" rx="1" fill="#DEE2E6"/>
<path d="M1 3C1 2.44772 1.44772 2 2 2H16C16.5523 2 17 2.44772 17 3V6H1V3Z" fill="#ADB5BD" stroke="#ADB5BD"/>
<path d="M4 1.00098V4.47924" stroke="#ADB5BD" stroke-linecap="round" stroke-linejoin="round"/>
<path d="M4 2V4" stroke="white" stroke-linecap="square" stroke-linejoin="round"/>
<path d="M14 1.00098V4.47924" stroke="#ADB5BD" stroke-linecap="round" stroke-linejoin="round"/>
<path d="M14 2V4" stroke="white" stroke-linecap="square" stroke-linejoin="round"/>
</svg>
