<svg width="18" height="12" viewBox="0 0 18 12" fill="none" xmlns="http://www.w3.org/2000/svg">
<path d="M17 9.9445C16.8843 9.42526 16.6672 8.94284 16.3651 8.53357C16.063 8.12429 15.6837 7.79883 15.2558 7.58169C14.828 7.36455 14.3627 7.26138 13.8949 7.27996C13.4272 7.29854 12.9692 7.43838 12.5555 7.68895" stroke="#6EA8FE" stroke-linecap="round" stroke-linejoin="round"/>
<path d="M1 9.9445C1.11571 9.42526 1.33279 8.94284 1.6349 8.53357C1.93701 8.12429 2.31628 7.79883 2.74415 7.58169C3.17201 7.36455 3.63733 7.26138 4.10506 7.27996C4.57279 7.29854 5.03075 7.43838 5.44444 7.68895" stroke="#6EA8FE" stroke-linecap="round" stroke-linejoin="round"/>
<path d="M13 11.5C13 10.4391 12.5786 9.42172 11.8284 8.67157C11.0783 7.92143 10.0609 7.5 9 7.5C7.93913 7.5 6.92172 7.92143 6.17157 8.67157C5.42143 9.42172 5 10.4391 5 11.5" fill="#0D6EFD"/>
<path d="M13 11.5C13 10.4391 12.5786 9.42172 11.8284 8.67157C11.0783 7.92143 10.0609 7.5 9 7.5C7.93913 7.5 6.92172 7.92143 6.17157 8.67157C5.42143 9.42172 5 10.4391 5 11.5H13Z" stroke="#0D6EFD" stroke-linecap="round" stroke-linejoin="round"/>
<circle cx="9" cy="3.5" r="2.5" fill="white" stroke="#0D6EFD"/>
<path fill-rule="evenodd" clip-rule="evenodd" d="M7.52475 0.887184C7.96038 0.640695 8.46376 0.5 9 0.5C10.5257 0.5 11.7853 1.63885 11.9752 3.11282C11.5396 3.35931 11.0362 3.5 10.5 3.5C8.97434 3.5 7.71468 2.36115 7.52475 0.887184Z" fill="#0D6EFD"/>
<circle cx="15" cy="4.5" r="2" fill="#6EA8FE"/>
<circle cx="3" cy="4.5" r="2" fill="#6EA8FE"/>
</svg>
