<svg width="16" height="17" viewBox="0 0 16 17" fill="none" xmlns="http://www.w3.org/2000/svg">
<path fill-rule="evenodd" clip-rule="evenodd" d="M14.6095 0.998047H1.3905C0.622008 0.998047 -0.000976562 1.62103 -0.000976562 2.38952V15.6085C-0.000976562 16.377 0.622008 17 1.3905 17H14.6095C15.378 17 16.001 16.377 16.001 15.6085V2.38952C16.001 1.62103 15.378 0.998047 14.6095 0.998047ZM7.30993 3.77535C7.50519 3.97062 7.50519 4.2872 7.30993 4.48246L4.52698 7.26541C4.33172 7.46067 4.01514 7.46067 3.81987 7.26541L2.77627 6.2218C2.58101 6.02654 2.58101 5.70996 2.77627 5.5147C2.97153 5.31943 3.28811 5.31943 3.48338 5.5147L4.17343 6.20475L6.60282 3.77535C6.79808 3.58009 7.11467 3.58009 7.30993 3.77535ZM7.30993 11.4397C7.50519 11.2445 7.50519 10.9279 7.30993 10.7326C7.11467 10.5374 6.79808 10.5374 6.60282 10.7326L4.17343 13.162L3.48338 12.472C3.28811 12.2767 2.97153 12.2767 2.77627 12.472C2.58101 12.6672 2.58101 12.9838 2.77627 13.1791L3.81987 14.2227C3.91364 14.3165 4.04082 14.3691 4.17343 14.3691C4.30604 14.3691 4.43321 14.3165 4.52698 14.2227L7.30993 11.4397ZM8.54358 6.56396C8.54358 6.28782 8.76744 6.06396 9.04358 6.06396H13.218C13.4941 6.06396 13.718 6.28782 13.718 6.56396C13.718 6.84011 13.4941 7.06396 13.218 7.06396H9.04358C8.76744 7.06396 8.54358 6.84011 8.54358 6.56396ZM9.04358 12.3257C8.76744 12.3257 8.54358 12.5495 8.54358 12.8257C8.54358 13.1018 8.76744 13.3257 9.04358 13.3257H13.218C13.4941 13.3257 13.718 13.1018 13.718 12.8257C13.718 12.5495 13.4941 12.3257 13.218 12.3257H9.04358Z" fill="#FFC107"/>
</svg>
