<svg width="15" height="18" viewBox="0 0 15 18" fill="none" xmlns="http://www.w3.org/2000/svg">
<path d="M13.4348 17C13.7469 17 14 16.6885 14 16.3043V5L10 1H1.56522C1.25306 1 1 1.31145 1 1.69565V16.3043C1 16.6885 1.25306 17 1.56522 17H13.4348Z" fill="#20C997" stroke="#20C997" stroke-linecap="round" stroke-linejoin="round"/>
<path d="M10 15C11.1046 15 12 14.1046 12 13C12 11.8954 11.1046 11 10 11C8.89543 11 8 11.8954 8 13C8 14.1046 8.89543 15 10 15Z" stroke="white" stroke-linecap="round" stroke-linejoin="round"/>
<path d="M3 15L3.88 13.9723C3.89547 13.9543 3.91511 13.939 3.93777 13.9273C3.96043 13.9157 3.98565 13.9079 4.01195 13.9045C4.03825 13.9011 4.06511 13.9021 4.09094 13.9075C4.11678 13.9128 4.14107 13.9224 4.1624 13.9357L4.64 14.2333C4.68243 14.2599 4.73577 14.2712 4.78828 14.265C4.84079 14.2587 4.88817 14.2354 4.92 14.2L6 13" stroke="white" stroke-linecap="round" stroke-linejoin="round"/>
<path d="M10.5 11.5C10.3047 12.0858 10 13 10 13H11.5" fill="white"/>
<path d="M10.5 11.5C10.3047 12.0858 10 13 10 13H11.5V12L10.5 11.5Z" stroke="white" stroke-linecap="round" stroke-linejoin="round"/>
<path d="M6.66667 3H3.33333C3.14924 3 3 3.1599 3 3.35714V7.64286C3 7.8401 3.14924 8 3.33333 8H6.66667C6.85076 8 7 7.8401 7 7.64286V3.35714C7 3.1599 6.85076 3 6.66667 3Z" fill="white" stroke="white" stroke-linecap="round" stroke-linejoin="round"/>
<mask id="path-7-outside-1_407_1763" maskUnits="userSpaceOnUse" x="9" y="0" width="6" height="6" fill="black">
<rect fill="white" x="9" width="6" height="6"/>
<path d="M10 1V4.18534C10 4.4014 10.0858 4.60861 10.2386 4.76139C10.3914 4.91417 10.5986 5 10.8147 5H14"/>
</mask>
<path d="M10 1V4.18534C10 4.4014 10.0858 4.60861 10.2386 4.76139C10.3914 4.91417 10.5986 5 10.8147 5H14" fill="#79DFC1"/>
<path d="M10.3536 0.646447C10.1583 0.451184 9.84171 0.451184 9.64645 0.646447C9.45118 0.841709 9.45118 1.15829 9.64645 1.35355L10.3536 0.646447ZM13.6464 5.35355C13.8417 5.54882 14.1583 5.54882 14.3536 5.35355C14.5488 5.15829 14.5488 4.84171 14.3536 4.64645L13.6464 5.35355ZM9.64645 1.35355L13.6464 5.35355L14.3536 4.64645L10.3536 0.646447L9.64645 1.35355ZM11 1C11 0.447715 10.5523 0 10 0C9.44772 0 9 0.447715 9 1H11ZM14 6C14.5523 6 15 5.55228 15 5C15 4.44772 14.5523 4 14 4V6ZM9 1V4.18534H11V1H9ZM9 4.18534C9 4.66662 9.19119 5.12818 9.5315 5.4685L10.9457 4.05428C10.9805 4.08904 11 4.13618 11 4.18534H9ZM9.5315 5.4685C9.87182 5.80881 10.3334 6 10.8147 6V4C10.8638 4 10.911 4.01953 10.9457 4.05428L9.5315 5.4685ZM10.8147 6H14V4H10.8147V6Z" fill="white" mask="url(#path-7-outside-1_407_1763)"/>
</svg>
