<svg width="12" height="16" viewBox="0 0 12 16" fill="none" xmlns="http://www.w3.org/2000/svg">
<path d="M6 2C6.55228 2 7 1.55228 7 1C7 0.447715 6.55228 0 6 0C5.44772 0 5 0.447715 5 1C5 1.55228 5.44772 2 6 2Z" fill="#DC3545"/>
<path d="M6.849 1H8.4C8.55913 1 8.71174 1.07024 8.82426 1.19526C8.93679 1.32029 9 1.48986 9 1.66667V2.33333C9 2.51014 8.93679 2.67971 8.82426 2.80474C8.71174 2.92976 8.55913 3 8.4 3H3.6C3.44087 3 3.28826 2.92976 3.17574 2.80474C3.06321 2.67971 3 2.51014 3 2.33333V1.66667C3 1.48986 3.06321 1.32029 3.17574 1.19526C3.28826 1.07024 3.44087 1 3.6 1H5.151" fill="#DC3545"/>
<rect y="2" width="12" height="14" rx="1" fill="#DC3545"/>
<path d="M8 6.55556C8 6.49662 7.97659 6.4401 7.93491 6.39842C7.89324 6.35675 7.83671 6.33333 7.77778 6.33333H6.66667V5.22222C6.66667 5.16329 6.64325 5.10676 6.60158 5.06509C6.5599 5.02341 6.50338 5 6.44444 5H5.55556C5.49662 5 5.4401 5.02341 5.39842 5.06509C5.35675 5.10676 5.33333 5.16329 5.33333 5.22222V6.33333H4.22222C4.16329 6.33333 4.10676 6.35675 4.06509 6.39842C4.02341 6.4401 4 6.49662 4 6.55556V7.44444C4 7.50338 4.02341 7.5599 4.06509 7.60158C4.10676 7.64325 4.16329 7.66667 4.22222 7.66667H5.33333V8.77778C5.33333 8.83671 5.35675 8.89324 5.39842 8.93491C5.4401 8.97659 5.49662 9 5.55556 9H6.44444C6.50338 9 6.5599 8.97659 6.60158 8.93491C6.64325 8.89324 6.66667 8.83671 6.66667 8.77778V7.66667H7.77778C7.83671 7.66667 7.89324 7.64325 7.93491 7.60158C7.97659 7.5599 8 7.50338 8 7.44444V6.55556Z" fill="white"/>
</svg>
