<svg width="18" height="17" viewBox="0 0 18 17" fill="none" xmlns="http://www.w3.org/2000/svg">
<path fill-rule="evenodd" clip-rule="evenodd" d="M8 16C12.4183 16 16 12.4183 16 8C16 3.58172 12.4183 0 8 0C3.58172 0 0 3.58172 0 8C0 12.4183 3.58172 16 8 16ZM9 13.5C10.3807 13.5 11.5 12.3807 11.5 11C11.5 9.61929 10.3807 8.5 9 8.5C7.61929 8.5 6.5 9.61929 6.5 11C6.5 12.3807 7.61929 13.5 9 13.5ZM4.58397 5.22265C4.73715 4.99289 5.04759 4.9308 5.27735 5.08397L6.77735 6.08397C6.91645 6.17671 7 6.33282 7 6.5C7 6.66718 6.91645 6.82329 6.77735 6.91603L5.27735 7.91603C5.04759 8.0692 4.73715 8.00711 4.58397 7.77735C4.4308 7.54759 4.49289 7.23715 4.72265 7.08397L5.59861 6.5L4.72265 5.91603C4.49289 5.76285 4.4308 5.45241 4.58397 5.22265ZM12.2227 5.08397C12.4524 4.9308 12.7628 4.99289 12.916 5.22265C13.0692 5.45241 13.0071 5.76285 12.7773 5.91603L11.9014 6.5L12.7773 7.08397C13.0071 7.23715 13.0692 7.54759 12.916 7.77735C12.7628 8.00711 12.4524 8.0692 12.2227 7.91603L10.7226 6.91603C10.5836 6.82329 10.5 6.66718 10.5 6.5C10.5 6.33282 10.5836 6.17671 10.7226 6.08397L12.2227 5.08397Z" fill="#0D6EFD"/>
<path d="M15.3525 13.6211L17.1676 14.461" stroke="#6EA8FE" stroke-linecap="round" stroke-linejoin="round"/>
<path d="M12.6299 12.3613L13.5374 12.7813" stroke="white" stroke-linecap="round" stroke-linejoin="round"/>
<path d="M13.2598 11L14.2451 11.1707" stroke="white" stroke-linecap="round" stroke-linejoin="round"/>
<path d="M15.7231 11.4268L16.7085 11.5975" stroke="#6EA8FE" stroke-linecap="round" stroke-linejoin="round"/>
<path d="M12 13.7227L13.5359 15.0037" stroke="white" stroke-linecap="round" stroke-linejoin="round"/>
<path d="M15.0718 16.2847L15.0725 16.2853" stroke="#6EA8FE" stroke-linecap="round" stroke-linejoin="round"/>
</svg>
