<svg width="16" height="17" viewBox="0 0 16 17" fill="none" xmlns="http://www.w3.org/2000/svg">
<path d="M15.9726 5.24759C15.9726 5.09345 15.9419 5.09345 15.8803 5.09345H9.23274C9.17119 5.09345 9.14041 5.06262 9.14041 5.00096V0.592486C9.14041 0.530829 9.10964 0.5 9.04809 0.5H6.95533C6.89378 0.5 6.863 0.530829 6.863 0.592486V11.8141C6.863 11.8757 6.89378 11.9066 6.95533 11.9066H9.04809C9.10964 11.9066 9.14041 11.8757 9.14041 11.8141V7.46724C9.14041 7.40559 9.17119 7.37476 9.23274 7.37476H13.6029C13.6645 7.37476 13.6952 7.40559 13.6952 7.46724V9.56358C13.6952 9.62524 13.6645 9.65607 13.6029 9.65607H11.5102C11.4486 9.65607 11.4178 9.6869 11.4178 9.74855V14.1262C11.4178 14.1879 11.387 14.2187 11.3255 14.2187H4.67792C4.61637 14.2187 4.5856 14.1879 4.5856 14.1262V5.18593C4.5856 5.12428 4.55482 5.09345 4.49327 5.09345L0 5.06262V7.34393H2.18508C2.24663 7.34393 2.27741 7.37476 2.27741 7.43642V16.4075C2.27741 16.4692 2.30819 16.5 2.36974 16.5H13.6029C13.6645 16.5 13.6952 16.4692 13.6952 16.4075V16.4383V12.0607C13.6952 11.9682 13.726 11.9374 13.7876 11.9374H15.8495C15.8495 11.9374 15.9111 11.9374 15.9726 11.8757C16.0342 11.8449 15.9726 5.24759 15.9726 5.24759Z" fill="#3D8BFD"/>
</svg>
