<svg width="17" height="16" viewBox="0 0 17 16" fill="none" xmlns="http://www.w3.org/2000/svg">
<path d="M6.26645 2.08688C6.84326 2.08688 7.31085 1.61972 7.31085 1.04344C7.31085 0.467164 6.84326 0 6.26645 0C5.68964 0 5.22205 0.467164 5.22205 1.04344C5.22205 1.61972 5.68964 2.08688 6.26645 2.08688Z" fill="#D63384"/>
<path d="M7.25159 1H9.05145C9.23611 1 9.41321 1.07329 9.54378 1.20374C9.67436 1.3342 9.74772 1.51113 9.74772 1.69563V2.39125C9.74772 2.57574 9.67436 2.75268 9.54378 2.88314C9.41321 3.01359 9.23611 3.08688 9.05145 3.08688H3.4813C3.29664 3.08688 3.11954 3.01359 2.98897 2.88314C2.85839 2.75268 2.78503 2.57574 2.78503 2.39125V1.69563C2.78503 1.51113 2.85839 1.3342 2.98897 1.20374C3.11954 1.07329 3.29664 1 3.4813 1H5.28116" fill="#D63384"/>
<path fill-rule="evenodd" clip-rule="evenodd" d="M1 2C0.447715 2 0 2.44772 0 3V15C0 15.5523 0.447715 16 1 16H11.5C12.0523 16 12.5 15.5523 12.5 15V3C12.5 2.44772 12.0523 2 11.5 2H1ZM2.08875 5.76074C1.8126 5.76074 1.58875 5.9846 1.58875 6.26074C1.58875 6.53688 1.8126 6.76074 2.08875 6.76074H10.444C10.7201 6.76074 10.944 6.53688 10.944 6.26074C10.944 5.9846 10.7201 5.76074 10.444 5.76074H2.08875ZM1.58875 9.04321C1.58875 8.76707 1.8126 8.54321 2.08875 8.54321H8.67962C8.95576 8.54321 9.17962 8.76707 9.17962 9.04321C9.17962 9.31936 8.95576 9.54321 8.67962 9.54321H2.08875C1.8126 9.54321 1.58875 9.31936 1.58875 9.04321ZM2.08875 11.3257C1.8126 11.3257 1.58875 11.5495 1.58875 11.8257C1.58875 12.1018 1.8126 12.3257 2.08875 12.3257H7.64705C7.9232 12.3257 8.14705 12.1018 8.14705 11.8257C8.14705 11.5495 7.9232 11.3257 7.64705 11.3257H2.08875Z" fill="#D63384"/>
<path d="M12.39 9.88071H14.2695C15.1037 9.88071 15.688 10.2812 16.0418 10.8306C16.3796 11.3552 16.5 11.9972 16.5 12.5363C16.5 12.5444 16.4998 12.5525 16.4994 12.5605C16.4638 13.2933 16.1991 13.9965 15.7427 14.5715C15.6105 14.7381 15.3873 14.8029 15.1865 14.7329C14.9856 14.6628 14.851 14.4734 14.851 14.2607V13.1829C14.851 13.145 14.8483 13.1212 14.8459 13.1076C14.8269 13.0983 14.7862 13.0823 14.7103 13.0679C14.6098 13.0488 14.4677 13.0363 14.2695 13.0363H12.39V13.3088V13.3093V9.88071ZM12.39 9.88071V9.6077M12.39 9.88071V9.6077M12.39 9.6077C12.3902 9.46577 12.3481 9.32713 12.2693 9.20931L12.2693 9.20931C12.1904 9.09138 12.0783 8.99971 11.9474 8.94566C11.8166 8.89162 11.6727 8.87753 11.534 8.90511C11.3954 8.93265 11.2679 9.00056 11.1676 9.10051C11.1676 9.10055 11.1676 9.10059 11.1675 9.10063C11.1674 9.10074 11.1673 9.10085 11.1672 9.10096L9.31038 10.9513L9.31032 10.9513C9.17584 11.0854 9.09998 11.2675 9.09998 11.4578C9.09998 11.6481 9.17583 11.8303 9.31029 11.9643L12.39 9.6082C12.39 9.60803 12.39 9.60787 12.39 9.6077ZM11.1672 13.8156C11.1672 13.8156 11.1673 13.8157 11.1673 13.8157L9.31032 11.9644L11.1672 13.8156Z" fill="#E685B5" stroke="white" stroke-linecap="round" stroke-linejoin="round"/>
</svg>
