<svg width="14" height="18" viewBox="0 0 14 18" fill="none" xmlns="http://www.w3.org/2000/svg">
<path d="M3 17H11C12.1046 17 13 16.1046 13 15V6.44152C13 5.58066 12.4491 4.81638 11.6325 4.54415L11.0416 4.34718C10.3928 4.13095 9.89957 3.59827 9.73372 2.93489L9.62873 2.51493C9.40615 1.62459 8.60618 1 7.68845 1H3C1.89543 1 1 1.89543 1 3V15C1 16.1046 1.89543 17 3 17Z" fill="#FD7E14" stroke="#FD7E14"/>
<path d="M9.61477 0.658029C9.47444 0.508351 9.25692 0.459587 9.06613 0.535035C8.87534 0.610484 8.75 0.794831 8.75 1V4C8.75 4.82843 9.42157 5.5 10.25 5.5H13C13.1993 5.5 13.3796 5.38164 13.4588 5.19876C13.538 5.01589 13.5011 4.80343 13.3648 4.65803L9.61477 0.658029Z" fill="#FEB272" stroke="white" stroke-linejoin="round"/>
<path d="M10 8.33333C10 8.24493 9.96488 8.16014 9.90237 8.09763C9.83986 8.03512 9.75507 8 9.66667 8H8V6.33333C8 6.24493 7.96488 6.16014 7.90237 6.09763C7.83986 6.03512 7.75507 6 7.66667 6H6.33333C6.24493 6 6.16014 6.03512 6.09763 6.09763C6.03512 6.16014 6 6.24493 6 6.33333V8H4.33333C4.24493 8 4.16014 8.03512 4.09763 8.09763C4.03512 8.16014 4 8.24493 4 8.33333V9.66667C4 9.75507 4.03512 9.83986 4.09763 9.90237C4.16014 9.96488 4.24493 10 4.33333 10H6V11.6667C6 11.7551 6.03512 11.8399 6.09763 11.9024C6.16014 11.9649 6.24493 12 6.33333 12H7.66667C7.75507 12 7.83986 11.9649 7.90237 11.9024C7.96488 11.8399 8 11.7551 8 11.6667V10H9.66667C9.75507 10 9.83986 9.96488 9.90237 9.90237C9.96488 9.83986 10 9.75507 10 9.66667V8.33333Z" fill="white"/>
</svg>
