<svg width="16" height="16" viewBox="0 0 16 16" fill="none" xmlns="http://www.w3.org/2000/svg">
<path d="M13.0887 11.5976C13.2133 10.7463 12.2684 9.6852 12.2684 9.6852C11.9488 8.85838 11.957 8.15922 11.9664 7.36547V7.36538C11.9691 7.14054 11.9718 6.90816 11.9672 6.66311C11.946 5.59665 11.6666 4.56004 11.1625 3.67731C10.6105 2.83701 9.88661 2.17863 9.0598 1.76492C8.01062 1.18634 6.86769 0.887364 5.71104 0.888922C4.19638 0.888922 2.74375 1.60386 1.67273 2.87648C0.601697 4.14906 0 5.87509 0 7.67479C0 9.84013 1.02406 11.5106 2.35317 12.7505V15.6794L7.06092 16.0002V15.3538C7.06092 15.3538 7.26912 14.5593 7.70588 14.6669C8.46351 14.8535 11.5 16.5 11.5 14.6669C10.5 14.5 10.4499 13.5216 11.5963 13.5216C11.6746 13.1932 11.7336 13.1247 11.7336 12.6834C11.7336 12.6834 12.9641 12.4489 13.0887 11.5976Z" fill="#FD7E14"/>
<path d="M14.5 6V14H13" stroke="#FEB272" stroke-linecap="round" stroke-linejoin="round" stroke-dasharray="2 2"/>
<path fill-rule="evenodd" clip-rule="evenodd" d="M16 3.59378C16 3.96673 15.842 4.32441 15.5607 4.58813C15.2794 4.85184 14.8978 5 14.5 5C14.1022 5 13.7206 4.85185 13.4393 4.58813C13.158 4.32441 13 3.96673 13 3.59378V3.0001H15.9999C16 3.0001 16 3.0001 16 3.0001V3.59378ZM16 2.0001V1.40622C16 1.03327 15.842 0.675591 15.5607 0.411873C15.2794 0.148155 14.8978 0 14.5 0C14.1022 0 13.7206 0.148155 13.4393 0.411873C13.158 0.675591 13 1.03327 13 1.40622V2.0001H15.9999C16 2.0001 16 2.0001 16 2.0001Z" fill="#FEB272"/>
<path d="M10.697 9C10.472 9.25786 10.1668 9.40273 9.84852 9.40273C9.53026 9.40273 9.22504 9.25786 9 9" stroke="white" stroke-linecap="round" stroke-linejoin="round"/>
</svg>
