<svg width="24" height="24" viewBox="0 0 24 24" fill="none" xmlns="http://www.w3.org/2000/svg">
<rect width="24" height="24" rx="4" fill="white"/>
<rect x="4" y="4" width="12" height="16" rx="1" fill="#D63384"/>
<path d="M6 7H14" stroke="white" stroke-linecap="round" stroke-linejoin="round"/>
<path d="M6 10H11" stroke="white" stroke-linecap="round" stroke-linejoin="round"/>
<path d="M6 13H10" stroke="white" stroke-linecap="round" stroke-linejoin="round"/>
<path d="M17.7141 13.9H17.7143H18.8571C19.3009 13.9 19.7213 14.0853 20.0273 14.4066C20.3325 14.7271 20.5 15.1568 20.5 15.6C20.5 15.8841 20.3928 16.1611 20.1947 16.3691C20.1166 16.4511 20.0267 16.5198 19.9286 16.5729V17.4C19.9286 17.6841 19.8213 17.9611 19.6233 18.1691C19.4244 18.3779 19.1494 18.5 18.8571 18.5H13.1429C12.8506 18.5 12.5756 18.3779 12.3767 18.1691C12.1787 17.9611 12.0714 17.6841 12.0714 17.4V16.5729C11.9733 16.5198 11.8834 16.4511 11.8053 16.3691C11.6072 16.1611 11.5 15.8841 11.5 15.6C11.5 15.1568 11.6675 14.7271 11.9727 14.4066C12.2787 14.0853 12.6991 13.9 13.1429 13.9H14.2857H14.2859C14.4454 13.9001 14.6037 13.835 14.7256 13.7106C14.8481 13.5855 14.9235 13.4104 14.9287 13.221C14.9314 13.1048 14.9076 12.9905 14.8603 12.8877L15.3145 12.6787L14.8603 12.8877C14.813 12.785 14.7443 12.698 14.6616 12.6325C14.2906 12.3401 14.0203 11.9358 13.8844 11.4793C13.7486 11.0227 13.753 10.5334 13.8971 10.0795L14.3519 10.2239L13.8971 10.0795C14.0413 9.6254 14.3192 9.22616 14.6959 8.94107C15.073 8.65567 15.5293 8.5 16 8.5C16.4707 8.5 16.927 8.65567 17.3041 8.94107C17.6808 9.22616 17.9587 9.6254 18.1029 10.0795C18.247 10.5334 18.2514 11.0227 18.1156 11.4793C17.9797 11.936 17.7092 12.3405 17.3379 12.6328L17.3377 12.633C17.255 12.6981 17.1861 12.7848 17.1389 12.8875C17.0917 12.9902 17.0681 13.1045 17.0712 13.2206L17.7141 13.9ZM17.7141 13.9C17.5546 13.9001 17.3964 13.8351 17.2745 13.7107M17.7141 13.9L17.2745 13.7107M17.2745 13.7107C17.1519 13.5856 17.0764 13.4103 17.0712 13.2208L17.2745 13.7107Z" fill="#E685B5" stroke="white" stroke-linecap="round" stroke-linejoin="round"/>
</svg>
