<svg width="16" height="16" viewBox="0 0 16 16" fill="none" xmlns="http://www.w3.org/2000/svg">
<path fill-rule="evenodd" clip-rule="evenodd" d="M3.74782 12.3321C3.36587 12.5582 3.11111 12.9647 3.11111 13.4286C3.11111 14.1387 3.70804 14.7143 4.44444 14.7143C5.18084 14.7143 5.77778 14.1387 5.77778 13.4286C5.77778 12.7754 5.27271 12.236 4.61862 12.1537C4.60404 12.1034 4.58884 12.0454 4.57338 11.9803C4.52013 11.7559 4.46933 11.4714 4.43151 11.1791C4.3936 10.8862 4.37009 10.5959 4.36853 10.3589C4.36796 10.2721 4.3704 10.1964 4.37538 10.1329C4.54636 10.0856 4.71782 10.043 4.88889 10.0054C5.08502 9.96233 5.20111 10.1856 5.29516 10.3665C5.30827 10.3917 5.32093 10.416 5.33333 10.4387H7.13951C7.54653 10.4386 7.74773 10.4387 7.95124 10.4387C8.15004 10.4388 8.35138 10.4388 8.74893 10.4387H10.5552C10.6567 10.2529 10.8876 9.95633 11.1111 10.0054C11.3495 10.0578 11.5887 10.1199 11.8262 10.191L11.8247 10.1917C11.8242 10.1907 11.8242 10.1908 11.8248 10.1923C11.8268 10.1983 11.8366 10.2263 11.8463 10.2871C11.8574 10.3563 11.8651 10.4462 11.8682 10.5544C11.8745 10.7706 11.862 11.0333 11.8354 11.298C11.8088 11.5624 11.7694 11.8184 11.7249 12.0205C11.7151 12.0652 11.7053 12.106 11.6956 12.1429H11.1111C10.9428 12.1429 10.7889 12.2346 10.7136 12.3798L10.2692 13.2369C10.2383 13.2964 10.2222 13.3621 10.2222 13.4286V14.2857C10.2222 14.5224 10.4212 14.7143 10.6667 14.7143H11.5556V13.8571H11.1111V13.5298L11.3858 13H12.6142L12.8889 13.5298V13.8571H12.4444V14.7143H13.3333C13.5788 14.7143 13.7778 14.5224 13.7778 14.2857V13.4286C13.7778 13.3621 13.7617 13.2964 13.7308 13.2369L13.2864 12.3798C13.2111 12.2346 13.0572 12.1429 12.8889 12.1429H12.6064C12.6538 11.9146 12.6933 11.6478 12.7201 11.3806C12.7492 11.0917 12.7644 10.7919 12.7568 10.5304L12.7564 10.5186C14.5287 11.2407 16 12.4283 16 13.6728V16H0V13.6728C0 12.3733 1.60441 11.1357 3.48044 10.4256C3.48551 10.692 3.51169 10.9935 3.54942 11.2852C3.59018 11.6001 3.64573 11.9137 3.70693 12.1715C3.72004 12.2268 3.73369 12.2806 3.74782 12.3321ZM4.44444 13.8634C4.68373 13.8634 4.88889 13.6747 4.88889 13.4286C4.88889 13.1825 4.68373 12.9937 4.44444 12.9937C4.20516 12.9937 4 13.1825 4 13.4286C4 13.6747 4.20516 13.8634 4.44444 13.8634Z" fill="#0D6EFD"/>
<circle cx="8" cy="4.5" r="4" fill="white" stroke="#0D6EFD"/>
<path fill-rule="evenodd" clip-rule="evenodd" d="M5.78711 0.580775C6.44054 0.211042 7.19561 0 7.99998 0C10.2885 0 12.178 1.70828 12.4628 3.91922C11.8094 4.28896 11.0543 4.5 10.25 4.5C7.96149 4.5 6.072 2.79172 5.78711 0.580775Z" fill="#0D6EFD"/>
</svg>
