<svg width="12" height="16" viewBox="0 0 12 16" fill="none" xmlns="http://www.w3.org/2000/svg">
<path d="M6.00001 0C7.59131 0 9.11744 0.559914 10.2427 1.55657C11.3679 2.55322 12 3.90498 12 5.31446C12 7.82784 7.60001 14.0876 6.33681 15.8371C6.30062 15.8871 6.25081 15.9283 6.19195 15.9568C6.1331 15.9853 6.06709 16.0002 6.00001 16.0002C5.93293 16.0002 5.86692 15.9853 5.80807 15.9568C5.74921 15.9283 5.6994 15.8871 5.66321 15.8371C4.40001 14.0883 0 7.82784 0 5.31446C0 3.90498 0.632142 2.55322 1.75736 1.55657C2.88258 0.559914 4.40871 0 6.00001 0Z" fill="#0D6EFD"/>
<path d="M6 8C7.10457 8 8 7.10457 8 6C8 4.89543 7.10457 4 6 4C4.89543 4 4 4.89543 4 6C4 7.10457 4.89543 8 6 8Z" fill="white"/>
</svg>
