<svg width="17" height="18" viewBox="0 0 17 18" fill="none" xmlns="http://www.w3.org/2000/svg">
<path d="M1.21232 15.7833C1.05737 16.1704 0.985891 16.5847 1.00238 17.0001H7.40143C7.41792 16.5847 7.34645 16.1704 7.19149 15.7833C7.03654 15.3962 6.80145 15.0447 6.501 14.7507C6.20054 14.4567 5.8412 14.2267 5.44556 14.0751C5.04991 13.9235 4.6265 13.8536 4.20191 13.8697C3.77732 13.8536 3.3539 13.9235 2.95826 14.0751C2.56261 14.2267 2.20327 14.4567 1.90282 14.7507C1.60236 15.0447 1.36728 15.3962 1.21232 15.7833Z" fill="#0D6EFD" stroke="#0D6EFD" stroke-linecap="round" stroke-linejoin="round"/>
<circle cx="4.25" cy="10.75" r="1.75" fill="#0D6EFD" stroke="#0D6EFD"/>
<path d="M9.17891 2.39136H3.84637" stroke="#6EA8FE" stroke-linecap="round" stroke-linejoin="round"/>
<path d="M7.4014 3.78271H3.84637" stroke="#6EA8FE" stroke-linecap="round" stroke-linejoin="round"/>
<path d="M10.2454 1C10.434 1 10.6149 1.07329 10.7482 1.20375C10.8815 1.33421 10.9564 1.51115 10.9564 1.69565V5.17391C10.9564 5.3584 10.8815 5.53535 10.7482 5.6658C10.6149 5.79626 10.434 5.86956 10.2454 5.86956H9.17893V7.60868L7.40141 5.86956H3.13538C2.94681 5.86956 2.76597 5.79626 2.63263 5.6658C2.49929 5.53535 2.42438 5.3584 2.42438 5.17391V1.69565C2.42438 1.51115 2.49929 1.33421 2.63263 1.20375C2.76597 1.07329 2.94681 1 3.13538 1H10.2454Z" stroke="#6EA8FE" stroke-linecap="round" stroke-linejoin="round"/>
<path fill-rule="evenodd" clip-rule="evenodd" d="M10.8739 13.1661C10.6829 13.2791 10.5556 13.4824 10.5556 13.7143C10.5556 14.0693 10.854 14.3571 11.2222 14.3571C11.5904 14.3571 11.8889 14.0693 11.8889 13.7143C11.8889 13.3877 11.6364 13.118 11.3093 13.0769C11.302 13.0517 11.2944 13.0227 11.2867 12.9901C11.2601 12.878 11.2347 12.7357 11.2158 12.5895C11.1968 12.4431 11.185 12.2979 11.1843 12.1795C11.184 12.136 11.1852 12.0982 11.1877 12.0665C11.2732 12.0428 11.3589 12.0215 11.4444 12.0027C11.5425 11.9812 11.6006 12.0928 11.6476 12.1832C11.6541 12.1958 11.6605 12.208 11.6667 12.2194H12.5698C12.7733 12.2193 12.8739 12.2193 12.9756 12.2194C13.075 12.2194 13.1757 12.2194 13.3745 12.2194H14.2776C14.3283 12.1265 14.4438 11.9782 14.5556 12.0027C14.6747 12.0289 14.7943 12.06 14.9131 12.0955L14.9124 12.0958C14.9121 12.0953 14.9121 12.0954 14.9124 12.0962C14.9134 12.0992 14.9183 12.1132 14.9232 12.1436C14.9287 12.1781 14.9325 12.2231 14.9341 12.2772C14.9373 12.3853 14.931 12.5166 14.9177 12.649C14.9044 12.7812 14.8847 12.9092 14.8625 13.0102C14.8576 13.0326 14.8526 13.053 14.8478 13.0714H14.5556C14.4714 13.0714 14.3944 13.1173 14.3568 13.1899L14.1346 13.6185C14.1191 13.6482 14.1111 13.681 14.1111 13.7143V14.1429C14.1111 14.2612 14.2106 14.3571 14.3333 14.3571H14.7778V13.9286H14.5556V13.7649L14.6929 13.5H15.3071L15.4444 13.7649V13.9286H15.2222V14.3571H15.6667C15.7894 14.3571 15.8889 14.2612 15.8889 14.1429V13.7143C15.8889 13.681 15.8809 13.6482 15.8654 13.6185L15.6432 13.1899C15.6056 13.1173 15.5286 13.0714 15.4444 13.0714H15.3032C15.3269 12.9573 15.3467 12.8239 15.3601 12.6903C15.3746 12.5459 15.3822 12.396 15.3784 12.2652L15.3782 12.2593C16.2643 12.6203 17 13.2142 17 13.8364V15H9V13.8364C9 13.1866 9.80221 12.5678 10.7402 12.2128C10.7428 12.346 10.7558 12.4968 10.7747 12.6426C10.7951 12.8 10.8229 12.9568 10.8535 13.0858C10.86 13.1134 10.8668 13.1403 10.8739 13.1661ZM11.2222 13.9317C11.3419 13.9317 11.4444 13.8373 11.4444 13.7143C11.4444 13.5912 11.3419 13.4968 11.2222 13.4968C11.1026 13.4968 11 13.5912 11 13.7143C11 13.8373 11.1026 13.9317 11.2222 13.9317Z" fill="#6EA8FE"/>
<circle cx="13" cy="9.25" r="1.75" fill="white" stroke="#6EA8FE"/>
<path fill-rule="evenodd" clip-rule="evenodd" d="M11.8936 7.29039C12.2203 7.10552 12.5978 7 13 7C14.1442 7 15.089 7.85414 15.2314 8.95961C14.9047 9.14448 14.5272 9.25 14.125 9.25C12.9808 9.25 12.036 8.39586 11.8936 7.29039Z" fill="#6EA8FE"/>
</svg>
