<svg width="13" height="16" viewBox="0 0 13 16" fill="none" xmlns="http://www.w3.org/2000/svg">
<path d="M6 2C6.55228 2 7 1.55228 7 1C7 0.447715 6.55228 0 6 0C5.44772 0 5 0.447715 5 1C5 1.55228 5.44772 2 6 2Z" fill="#DC3545"/>
<path d="M6.849 1H8.4C8.55913 1 8.71174 1.07024 8.82426 1.19526C8.93679 1.32029 9 1.48986 9 1.66667V2.33333C9 2.51014 8.93679 2.67971 8.82426 2.80474C8.71174 2.92976 8.55913 3 8.4 3H3.6C3.44087 3 3.28826 2.92976 3.17574 2.80474C3.06321 2.67971 3 2.51014 3 2.33333V1.66667C3 1.48986 3.06321 1.32029 3.17574 1.19526C3.28826 1.07024 3.44087 1 3.6 1H5.151" fill="#DC3545"/>
<rect y="2" width="12" height="14" rx="1" fill="#DC3545"/>
<path d="M8.64693 14.0834V14.218V14.2184V14.0834ZM8.64693 14.0834H10.3777C10.5647 14.0834 10.6998 14.0938 10.7963 14.1099C10.8386 14.1169 10.8696 14.1244 10.8916 14.1309V15C10.8916 15.2067 11.0189 15.3922 11.2118 15.4665C11.4046 15.5409 11.6234 15.4889 11.7622 15.3357C12.2013 14.8508 12.4639 14.2485 12.4992 13.6111C12.4997 13.6019 12.5 13.5927 12.5 13.5834C12.5 13.1176 12.3811 12.5618 12.048 12.1086C11.6987 11.6334 11.1424 11.3127 10.3777 11.3127H8.64693V11.1778V11.1774H8.14693C8.147 11.1423 8.13515 11.108 8.11287 11.0788C8.09059 11.0497 8.05889 11.0269 8.02179 11.0135C7.98469 11.0001 7.94386 10.9966 7.90447 11.0034C7.86509 11.0103 7.82892 11.0272 7.80056 11.052L8.64693 14.0834ZM7.64693 14.2194C7.64693 14.2191 7.64693 14.2187 7.64693 14.2184L7.64693 14.2194ZM7.47123 10.6758L5.73052 12.1957L5.73046 12.1958C5.59296 12.3159 5.5 12.4944 5.5 12.6975C5.5 12.9006 5.59294 13.0792 5.73043 13.1993C5.73044 13.1993 5.73045 13.1993 5.73046 13.1993L7.47122 14.72C7.47134 14.7201 7.47146 14.7202 7.47158 14.7203C7.47159 14.7203 7.4716 14.7203 7.47161 14.7203C7.57311 14.809 7.69486 14.8634 7.81869 14.885C7.9427 14.9066 8.07182 14.8959 8.19196 14.8525L7.47123 10.6758ZM7.64693 11.1764V11.1774C7.64693 11.177 7.64693 11.1767 7.64693 11.1764H7.64693Z" fill="#EA868F" stroke="white" stroke-linecap="round" stroke-linejoin="round"/>
<path d="M8 6.55556C8 6.49662 7.97659 6.4401 7.93491 6.39842C7.89324 6.35675 7.83671 6.33333 7.77778 6.33333H6.66667V5.22222C6.66667 5.16329 6.64325 5.10676 6.60158 5.06509C6.5599 5.02341 6.50338 5 6.44444 5H5.55556C5.49662 5 5.4401 5.02341 5.39842 5.06509C5.35675 5.10676 5.33333 5.16329 5.33333 5.22222V6.33333H4.22222C4.16329 6.33333 4.10676 6.35675 4.06509 6.39842C4.02341 6.4401 4 6.49662 4 6.55556V7.44444C4 7.50338 4.02341 7.5599 4.06509 7.60158C4.10676 7.64325 4.16329 7.66667 4.22222 7.66667H5.33333V8.77778C5.33333 8.83671 5.35675 8.89324 5.39842 8.93491C5.4401 8.97659 5.49662 9 5.55556 9H6.44444C6.50338 9 6.5599 8.97659 6.60158 8.93491C6.64325 8.89324 6.66667 8.83671 6.66667 8.77778V7.66667H7.77778C7.83671 7.66667 7.89324 7.64325 7.93491 7.60158C7.97659 7.5599 8 7.50338 8 7.44444V6.55556Z" fill="white"/>
</svg>
