<svg width="17" height="17" viewBox="0 0 17 17" fill="none" xmlns="http://www.w3.org/2000/svg">
<path fill-rule="evenodd" clip-rule="evenodd" d="M7.26882 13.9772C6.42361 12.9276 4.19267 11.9028 0.684517 11.7842C0.501956 11.7811 0.327861 11.7031 0.1998 11.5669C0.071738 11.4307 -2.33541e-05 11.2473 9.11954e-09 11.0563V0.727977C-1.49545e-05 0.63128 0.0183849 0.53555 0.0541249 0.446377C0.0898649 0.357205 0.142228 0.276377 0.208157 0.208615C0.274086 0.140853 0.352259 0.087515 0.438109 0.0517168C0.52396 0.0159185 0.615767 -0.0016226 0.708169 0.000117932C4.05637 0.116893 6.23734 1.06034 7.15567 2.0599C7.15331 2.07961 7.1521 2.09966 7.1521 2.12V11.27C7.1521 11.5461 7.37596 11.77 7.6521 11.77C7.92824 11.77 8.1521 11.5461 8.1521 11.27V2.12L8.15191 2.10642C9.11531 1.09442 11.4182 0.127994 14.5933 0.000845738C14.6859 -0.00128708 14.778 0.015964 14.8642 0.0515862C14.9504 0.0872084 15.0289 0.140484 15.0951 0.208285C15.1613 0.276087 15.214 0.357048 15.2499 0.446416C15.2858 0.535784 15.3043 0.631758 15.3042 0.728705V10.177L7.26882 13.9772ZM2.13656 2.19641C1.86238 2.1636 1.61351 2.35927 1.58069 2.63345C1.54788 2.90764 1.74355 3.15651 2.01773 3.18933C3.28652 3.34118 4.53474 3.64479 5.73795 4.09436C5.99662 4.19101 6.28467 4.05967 6.38132 3.80099C6.47797 3.54231 6.34663 3.25426 6.08795 3.15761C4.81055 2.68032 3.48475 2.35777 2.13656 2.19641ZM14.072 5.90913C14.1048 6.18332 13.9091 6.43217 13.6349 6.46497C12.3659 6.61675 11.1174 6.92036 9.91401 7.37C9.65534 7.46665 9.36729 7.3353 9.27064 7.07662C9.17399 6.81795 9.30534 6.5299 9.56401 6.43325C10.8416 5.95588 12.1677 5.63332 13.5161 5.47204C13.7903 5.43925 14.0392 5.63494 14.072 5.90913ZM2.13656 5.47205C1.86238 5.43923 1.61351 5.6349 1.58069 5.90909C1.54788 6.18327 1.74355 6.43215 2.01773 6.46496C3.28652 6.61681 4.53474 6.92042 5.73795 7.36999C5.99662 7.46665 6.28467 7.3353 6.38132 7.07662C6.47797 6.81795 6.34663 6.5299 6.08795 6.43325C4.81055 5.95596 3.48475 5.6334 2.13656 5.47205ZM1.54527 8.81285C1.57798 8.53865 1.82677 8.34288 2.10097 8.37559C3.46137 8.53787 4.79919 8.86313 6.08807 9.34483C6.34674 9.44151 6.47806 9.72957 6.38139 9.98823C6.28471 10.2469 5.99665 10.3782 5.73798 10.2816C4.52344 9.82763 3.26336 9.52134 1.98252 9.36855C1.70833 9.33584 1.51256 9.08705 1.54527 8.81285ZM13.6707 3.1818C13.9449 3.1492 14.1408 2.90047 14.1082 2.62626C14.0756 2.35205 13.8269 2.15619 13.5526 2.1888C12.1916 2.35065 10.8532 2.67594 9.56388 3.1581C9.30523 3.25482 9.17397 3.54291 9.27069 3.80156C9.36741 4.06021 9.6555 4.19147 9.91415 4.09475C11.129 3.64046 12.3895 3.33417 13.6707 3.1818Z" fill="#20C997"/>
<mask id="path-2-outside-1_488_1545" maskUnits="userSpaceOnUse" x="7.3418" y="7.72144" width="10" height="10" fill="black">
<rect fill="white" x="7.3418" y="7.72144" width="10" height="10"/>
<path d="M15.9999 16V15.1994C16.0026 14.6577 15.8055 14.1358 15.4494 13.7426C15.0934 13.3493 14.606 13.115 14.0889 13.0886H12.5216V9.63126C12.5216 9.38996 12.43 9.15854 12.267 8.98792C12.1039 8.81729 11.8827 8.72144 11.6521 8.72144C11.4215 8.72144 11.2003 8.81729 11.0372 8.98792C10.8741 9.15854 10.7825 9.38996 10.7825 9.63126V14.9082L9.72444 13.3513C9.68077 13.2607 9.62029 13.1801 9.54652 13.1142C9.47275 13.0483 9.38718 12.9984 9.29479 12.9675C9.20241 12.9366 9.10506 12.9252 9.00844 12.9341C8.91181 12.943 8.81784 12.9719 8.732 13.0191C8.64617 13.0664 8.5702 13.1311 8.50851 13.2094C8.44683 13.2878 8.40068 13.3781 8.37274 13.4753C8.34481 13.5725 8.33565 13.6746 8.34582 13.7755C8.35598 13.8764 8.38525 13.9742 8.43193 14.0632L9.40583 16"/>
</mask>
<path d="M15.9999 16V15.1994C16.0026 14.6577 15.8055 14.1358 15.4494 13.7426C15.0934 13.3493 14.606 13.115 14.0889 13.0886H12.5216V9.63126C12.5216 9.38996 12.43 9.15854 12.267 8.98792C12.1039 8.81729 11.8827 8.72144 11.6521 8.72144C11.4215 8.72144 11.2003 8.81729 11.0372 8.98792C10.8741 9.15854 10.7825 9.38996 10.7825 9.63126V14.9082L9.72444 13.3513C9.68077 13.2607 9.62029 13.1801 9.54652 13.1142C9.47275 13.0483 9.38718 12.9984 9.29479 12.9675C9.20241 12.9366 9.10506 12.9252 9.00844 12.9341C8.91181 12.943 8.81784 12.9719 8.732 13.0191C8.64617 13.0664 8.5702 13.1311 8.50851 13.2094C8.44683 13.2878 8.40068 13.3781 8.37274 13.4753C8.34481 13.5725 8.33565 13.6746 8.34582 13.7755C8.35598 13.8764 8.38525 13.9742 8.43193 14.0632L9.40583 16" fill="#79DFC1"/>
<path d="M14.9999 16C14.9999 16.5523 15.4476 17 15.9999 17C16.5522 17 16.9999 16.5523 16.9999 16H14.9999ZM15.9999 15.1994L14.9999 15.1943V15.1994H15.9999ZM14.0889 13.0886L14.14 12.0899C14.123 12.089 14.106 12.0886 14.0889 12.0886V13.0886ZM12.5216 13.0886H11.5216C11.5216 13.6409 11.9694 14.0886 12.5216 14.0886V13.0886ZM10.7825 14.9082L9.95545 15.4703C10.2022 15.8334 10.657 15.9931 11.0766 15.864C11.4962 15.7349 11.7825 15.3473 11.7825 14.9082H10.7825ZM9.72444 13.3513L8.82359 13.7855C8.84499 13.8299 8.86965 13.8727 8.89737 13.9134L9.72444 13.3513ZM8.43193 14.0632L9.32534 13.614C9.32275 13.6088 9.32013 13.6037 9.31745 13.5986L8.43193 14.0632ZM8.51242 16.4493C8.76053 16.9427 9.36166 17.1415 9.85507 16.8934C10.3485 16.6453 10.5474 16.0442 10.2992 15.5508L8.51242 16.4493ZM16.9999 16V15.1994H14.9999V16H16.9999ZM16.9999 15.2045C17.0039 14.4188 16.7183 13.6542 16.1908 13.0714L14.7081 14.4137C14.8926 14.6175 15.0014 14.8966 14.9999 15.1943L16.9999 15.2045ZM16.1908 13.0714C15.662 12.4873 14.9286 12.1302 14.14 12.0899L14.0379 14.0873C14.2834 14.0998 14.5249 14.2113 14.7081 14.4137L16.1908 13.0714ZM14.0889 12.0886H12.5216V14.0886H14.0889V12.0886ZM13.5216 13.0886V9.63126H11.5216V13.0886H13.5216ZM13.5216 9.63126C13.5216 9.13898 13.3352 8.65826 12.9899 8.29699L11.544 9.67885C11.5249 9.65882 11.5216 9.64094 11.5216 9.63126H13.5216ZM12.9899 8.29699C12.6431 7.93417 12.1629 7.72144 11.6521 7.72144V9.72144C11.6025 9.72144 11.5646 9.70041 11.544 9.67885L12.9899 8.29699ZM11.6521 7.72144C11.1413 7.72144 10.661 7.93417 10.3143 8.29699L11.7601 9.67885C11.7395 9.70041 11.7017 9.72144 11.6521 9.72144V7.72144ZM10.3143 8.29699C9.969 8.65826 9.78252 9.13898 9.78252 9.63126H11.7825C11.7825 9.64094 11.7793 9.65882 11.7601 9.67885L10.3143 8.29699ZM9.78252 9.63126V14.9082H11.7825V9.63126H9.78252ZM11.6096 14.3461L10.5515 12.7893L8.89737 13.9134L9.95545 15.4703L11.6096 14.3461ZM10.6253 12.9172C10.5256 12.7104 10.3861 12.5233 10.2127 12.3685L8.8803 13.86C8.85447 13.8369 8.83592 13.8111 8.82359 13.7855L10.6253 12.9172ZM10.2127 12.3685C10.0393 12.2135 9.83543 12.094 9.61222 12.0192L8.97737 13.9158C8.93893 13.9029 8.90624 13.8831 8.8803 13.86L10.2127 12.3685ZM9.61222 12.0192C9.38889 11.9445 9.15237 11.9167 8.91709 11.9383L9.09978 13.9299C9.05776 13.9338 9.01593 13.9287 8.97737 13.9158L9.61222 12.0192ZM8.91709 11.9383C8.68185 11.9599 8.45489 12.0301 8.24958 12.1432L9.21442 13.8951C9.18078 13.9136 9.14177 13.9261 9.09978 13.9299L8.91709 11.9383ZM8.24958 12.1432C8.0444 12.2562 7.86592 12.4091 7.72289 12.5907L9.29414 13.8281C9.27448 13.8531 9.24794 13.8766 9.21442 13.8951L8.24958 12.1432ZM7.72289 12.5907C7.57993 12.7723 7.47483 12.9793 7.41165 13.1991L9.33383 13.7516C9.32652 13.777 9.31373 13.8032 9.29414 13.8281L7.72289 12.5907ZM7.41165 13.1991C7.34849 13.4189 7.32799 13.6487 7.35085 13.8757L9.34079 13.6753C9.34332 13.7005 9.34113 13.7262 9.33383 13.7516L7.41165 13.1991ZM7.35085 13.8757C7.3737 14.1027 7.43967 14.3243 7.5464 14.5278L9.31745 13.5986C9.33083 13.6241 9.33825 13.6502 9.34079 13.6753L7.35085 13.8757ZM7.53852 14.5124L8.51242 16.4493L10.2992 15.5508L9.32534 13.614L7.53852 14.5124Z" fill="white" mask="url(#path-2-outside-1_488_1545)"/>
</svg>
