<svg width="17" height="16" viewBox="0 0 17 16" fill="none" xmlns="http://www.w3.org/2000/svg">
<path d="M6.26645 2.08688C6.84326 2.08688 7.31085 1.61972 7.31085 1.04344C7.31085 0.467164 6.84326 0 6.26645 0C5.68964 0 5.22205 0.467164 5.22205 1.04344C5.22205 1.61972 5.68964 2.08688 6.26645 2.08688Z" fill="#D63384"/>
<path d="M7.25159 1H9.05145C9.23611 1 9.41321 1.07329 9.54378 1.20374C9.67436 1.3342 9.74772 1.51113 9.74772 1.69563V2.39125C9.74772 2.57574 9.67436 2.75268 9.54378 2.88314C9.41321 3.01359 9.23611 3.08688 9.05145 3.08688H3.4813C3.29664 3.08688 3.11954 3.01359 2.98897 2.88314C2.85839 2.75268 2.78503 2.57574 2.78503 2.39125V1.69563C2.78503 1.51113 2.85839 1.3342 2.98897 1.20374C3.11954 1.07329 3.29664 1 3.4813 1H5.28116" fill="#D63384"/>
<path fill-rule="evenodd" clip-rule="evenodd" d="M1 2C0.447715 2 0 2.44772 0 3V15C0 15.5523 0.447715 16 1 16H11.5C12.0523 16 12.5 15.5523 12.5 15V3C12.5 2.44772 12.0523 2 11.5 2H1ZM2.08875 5.76074C1.8126 5.76074 1.58875 5.9846 1.58875 6.26074C1.58875 6.53688 1.8126 6.76074 2.08875 6.76074H10.444C10.7201 6.76074 10.944 6.53688 10.944 6.26074C10.944 5.9846 10.7201 5.76074 10.444 5.76074H2.08875ZM1.58875 9.04321C1.58875 8.76707 1.8126 8.54321 2.08875 8.54321H8.67962C8.95576 8.54321 9.17962 8.76707 9.17962 9.04321C9.17962 9.31936 8.95576 9.54321 8.67962 9.54321H2.08875C1.8126 9.54321 1.58875 9.31936 1.58875 9.04321ZM2.08875 11.3257C1.8126 11.3257 1.58875 11.5495 1.58875 11.8257C1.58875 12.1018 1.8126 12.3257 2.08875 12.3257H7.64705C7.9232 12.3257 8.14705 12.1018 8.14705 11.8257C8.14705 11.5495 7.9232 11.3257 7.64705 11.3257H2.08875Z" fill="#D63384"/>
<path d="M11.4885 11.8264L9.05151 12.522L9.74778 10.0873L13.9129 5.92605C14.1449 5.70158 14.456 5.57725 14.7791 5.57987C15.1021 5.58249 15.4111 5.71185 15.6395 5.94005C15.8679 6.16825 15.9974 6.47701 16 6.79972C16.0026 7.12243 15.8782 7.43324 15.6535 7.66511L11.4885 11.8264Z" fill="#E685B5" stroke="white" stroke-linecap="round" stroke-linejoin="round"/>
</svg>
