<svg width="17" height="18" viewBox="0 0 17 18" fill="none" xmlns="http://www.w3.org/2000/svg">
<path fill-rule="evenodd" clip-rule="evenodd" d="M0 16C0 16.5523 0.447715 17 1 17H11C11.5523 17 12 16.5523 12 16V5.72076C12 5.29033 11.7246 4.90819 11.3162 4.77208L9.52078 4.17359C9.19642 4.06547 8.94978 3.79914 8.86686 3.46744L8.43937 1.75746C8.32807 1.3123 7.92809 1 7.46922 1H1C0.447715 1 0 1.44772 0 2V16ZM1.5 7C1.5 6.72386 1.72386 6.5 2 6.5H7C7.27614 6.5 7.5 6.72386 7.5 7C7.5 7.27614 7.27614 7.5 7 7.5H2C1.72386 7.5 1.5 7.27614 1.5 7ZM2 8.5C1.72386 8.5 1.5 8.72386 1.5 9C1.5 9.27614 1.72386 9.5 2 9.5H6C6.27614 9.5 6.5 9.27614 6.5 9C6.5 8.72386 6.27614 8.5 6 8.5H2ZM1.5 11C1.5 10.7239 1.72386 10.5 2 10.5H5C5.27614 10.5 5.5 10.7239 5.5 11C5.5 11.2761 5.27614 11.5 5 11.5H2C1.72386 11.5 1.5 11.2761 1.5 11ZM2 12.5C1.72386 12.5 1.5 12.7239 1.5 13C1.5 13.2761 1.72386 13.5 2 13.5H5C5.27614 13.5 5.5 13.2761 5.5 13C5.5 12.7239 5.27614 12.5 5 12.5H2Z" fill="#6610F2"/>
<mask id="path-2-outside-1_407_1744" maskUnits="userSpaceOnUse" x="7" y="0" width="6" height="6" fill="black">
<rect fill="white" x="7" width="6" height="6"/>
<path d="M8 1V4.18534C8 4.4014 8.08583 4.60861 8.23861 4.76139C8.39139 4.91417 8.5986 5 8.81466 5H12"/>
</mask>
<path d="M8 1V4.18534C8 4.4014 8.08583 4.60861 8.23861 4.76139C8.39139 4.91417 8.5986 5 8.81466 5H12" fill="#A370F7"/>
<path d="M8.35355 0.646447C8.15829 0.451184 7.84171 0.451184 7.64645 0.646447C7.45118 0.841709 7.45118 1.15829 7.64645 1.35355L8.35355 0.646447ZM11.6464 5.35355C11.8417 5.54882 12.1583 5.54882 12.3536 5.35355C12.5488 5.15829 12.5488 4.84171 12.3536 4.64645L11.6464 5.35355ZM7.64645 1.35355L11.6464 5.35355L12.3536 4.64645L8.35355 0.646447L7.64645 1.35355ZM9 1C9 0.447715 8.55228 0 8 0C7.44772 0 7 0.447715 7 1H9ZM12 6C12.5523 6 13 5.55228 13 5C13 4.44772 12.5523 4 12 4V6ZM7 1V4.18534H9V1H7ZM7 4.18534C7 4.66662 7.19119 5.12818 7.5315 5.4685L8.94572 4.05428C8.98047 4.08904 9 4.13618 9 4.18534H7ZM7.5315 5.4685C7.87182 5.80881 8.33338 6 8.81466 6V4C8.86382 4 8.91096 4.01953 8.94572 4.05428L7.5315 5.4685ZM8.81466 6H12V4H8.81466V6Z" fill="white" mask="url(#path-2-outside-1_407_1744)"/>
<path d="M12.361 16.8409C12.3143 16.8912 12.2583 16.9312 12.1963 16.9586C12.1342 16.9859 12.0675 17 12 17C11.9325 17 11.8658 16.9859 11.8037 16.9586C11.7417 16.9312 11.6857 16.8912 11.639 16.8409L8.59092 13.5571C8.29152 13.2478 8.09391 12.849 8.02607 12.4173C7.95823 11.9855 8.0236 11.5426 8.21292 11.1514C8.35588 10.8562 8.5647 10.6003 8.82218 10.4048C9.07965 10.2093 9.37842 10.0797 9.69385 10.0269C10.0093 9.97403 10.3324 9.99934 10.6365 10.1007C10.9406 10.2021 11.217 10.3767 11.443 10.6101L12 11.1855L12.557 10.6101C12.783 10.3767 13.0594 10.2021 13.3635 10.1007C13.6676 9.99934 13.9907 9.97403 14.3062 10.0269C14.6216 10.0797 14.9203 10.2093 15.1778 10.4048C15.4353 10.6003 15.6441 10.8562 15.7871 11.1514C15.9764 11.5426 16.0418 11.9855 15.9739 12.4173C15.9061 12.849 15.7085 13.2478 15.4091 13.5571L12.361 16.8409Z" fill="#A370F7" stroke="white" stroke-linecap="round" stroke-linejoin="round"/>
</svg>
