<svg width="24" height="24" viewBox="0 0 24 24" fill="none" xmlns="http://www.w3.org/2000/svg">
<path d="M0 12C0 8.27247 0 6.4087 0.608964 4.93853C1.42092 2.97831 2.97831 1.42092 4.93853 0.608964C6.4087 0 8.27247 0 12 0C15.7275 0 17.5913 0 19.0615 0.608964C21.0217 1.42092 22.5791 2.97831 23.391 4.93853C24 6.4087 24 8.27247 24 12C24 15.7275 24 17.5913 23.391 19.0615C22.5791 21.0217 21.0217 22.5791 19.0615 23.391C17.5913 24 15.7275 24 12 24C8.27247 24 6.4087 24 4.93853 23.391C2.97831 22.5791 1.42092 21.0217 0.608964 19.0615C0 17.5913 0 15.7275 0 12Z" fill="#F8F9FA"/>
<path d="M12 11C13.933 11 15.5 9.433 15.5 7.5C15.5 5.567 13.933 4 12 4C10.067 4 8.5 5.567 8.5 7.5C8.5 9.433 10.067 11 12 11Z" stroke="#3D8BFD" stroke-linecap="round" stroke-linejoin="round"/>
<path d="M9.5 5C10.0015 5.63268 10.6029 6.13588 11.268 6.47953C11.9332 6.82317 12.6485 7.00019 13.3712 7C14.1033 7.00035 14.8277 6.81885 15.5 6.46662" stroke="#3D8BFD" stroke-linejoin="round"/>
<path d="M4 20C4 18.1435 4.84285 16.363 6.34315 15.0503C7.84344 13.7375 9.87827 13 12 13C14.1217 13 16.1566 13.7375 17.6569 15.0503C19.1571 16.363 20 18.1435 20 20" stroke="#3D8BFD" stroke-linecap="round" stroke-linejoin="round"/>
</svg>
