<svg width="14" height="16" viewBox="0 0 14 16" fill="none" xmlns="http://www.w3.org/2000/svg">
<path d="M0 2.27887V7.59126C0.0195882 9.34662 0.555719 11.0533 1.53579 12.4802C2.51586 13.907 3.89252 14.9852 5.47933 15.5685L6.22667 15.8565C6.72592 16.0478 7.27408 16.0478 7.77333 15.8565L8.52067 15.5685C10.1075 14.9852 11.4841 13.907 12.4642 12.4802C13.4443 11.0533 13.9804 9.34662 14 7.59126V2.27887C13.9993 2.07015 13.94 1.86623 13.8293 1.69238C13.7186 1.51853 13.5615 1.38239 13.3773 1.30084C11.3578 0.421695 9.18819 -0.0205999 7 0.000736774C4.81181 -0.0205999 2.64224 0.421695 0.622667 1.30084C0.438537 1.38239 0.281392 1.51853 0.170709 1.69238C0.060025 1.86623 0.000669861 2.07015 0 2.27887Z" fill="#6610F2"/>
<path d="M10 7.33333C10 7.24493 9.96488 7.16014 9.90237 7.09763C9.83986 7.03512 9.75507 7 9.66667 7H8V5.33333C8 5.24493 7.96488 5.16014 7.90237 5.09763C7.83986 5.03512 7.75507 5 7.66667 5H6.33333C6.24493 5 6.16014 5.03512 6.09763 5.09763C6.03512 5.16014 6 5.24493 6 5.33333V7H4.33333C4.24493 7 4.16014 7.03512 4.09763 7.09763C4.03512 7.16014 4 7.24493 4 7.33333V8.66667C4 8.75507 4.03512 8.83986 4.09763 8.90237C4.16014 8.96488 4.24493 9 4.33333 9H6V10.6667C6 10.7551 6.03512 10.8399 6.09763 10.9024C6.16014 10.9649 6.24493 11 6.33333 11H7.66667C7.75507 11 7.83986 10.9649 7.90237 10.9024C7.96488 10.8399 8 10.7551 8 10.6667V9H9.66667C9.75507 9 9.83986 8.96488 9.90237 8.90237C9.96488 8.83986 10 8.75507 10 8.66667V7.33333Z" fill="white"/>
</svg>
