<svg width="18" height="18" viewBox="0 0 18 18" fill="none" xmlns="http://www.w3.org/2000/svg">
<path d="M15.7931 4.01876L13.9823 2.20804L10.9633 5.22691L12.7741 7.03763L15.7931 4.01876Z" fill="#6EA8FE"/>
<path d="M12.7741 1L17.0001 5.22581M13.9823 2.20804L15.7931 4.01876L12.7741 7.03763L10.9633 5.22691L13.9823 2.20804Z" stroke="#6EA8FE" stroke-linecap="round" stroke-linejoin="round"/>
<path d="M3.41518 14.585L1 17.0001" stroke="#6EA8FE" stroke-linecap="round" stroke-linejoin="round"/>
<path fill-rule="evenodd" clip-rule="evenodd" d="M8.25049 5.52316L9.75503 4.01867L13.9816 8.24509L7.94364 14.2828C7.38086 14.9196 6.58948 15.3085 5.7415 15.3651C4.89353 15.4216 4.05754 15.1413 3.41521 14.5848C2.85831 13.9427 2.57756 13.1065 2.6341 12.2584C2.69064 11.4103 3.07987 10.6189 3.71708 10.0564L5.12795 8.64559L6.99494 10.4185C7.19518 10.6087 7.51165 10.6005 7.70181 10.4003C7.89196 10.2 7.88379 9.88356 7.68355 9.69341L5.83531 7.93826L7.54313 6.23049L9.41017 8.00349C9.61041 8.19365 9.92689 8.18547 10.117 7.98523C10.3072 7.78499 10.299 7.46852 10.0988 7.27836L8.25049 5.52316Z" fill="#0D6EFD"/>
<path d="M7.94373 2.20752L15.7925 10.056" stroke="#0D6EFD" stroke-linecap="round" stroke-linejoin="round"/>
</svg>
