<svg width="17" height="17" viewBox="0 0 17 17" fill="none" xmlns="http://www.w3.org/2000/svg">
<path d="M14 13.5L16 16H12.5L12 15.5L11.5 13.5L10.5 12.5L10 10V6L11.5 7L13.5 8.5L14 10V13.5Z" fill="#79DFC1"/>
<path d="M16 16.0002L14.2741 13.6113L14.2609 10.435C14.2901 9.1981 12.4654 7.74767 11.1304 6.60889" stroke="white" stroke-linecap="round" stroke-linejoin="round"/>
<rect width="11" height="14" rx="1" fill="#20C997"/>
<path d="M2.43488 3.82617H8.69574" stroke="white" stroke-linecap="round" stroke-linejoin="round"/>
<path d="M2.43488 6.60889H7.30444" stroke="white" stroke-linecap="round" stroke-linejoin="round"/>
<path d="M2.43488 9.39111H5.91314" stroke="white" stroke-linecap="round" stroke-linejoin="round"/>
<path d="M12.5377 11.826L10.6664 9.90041C10.5269 9.76776 10.341 9.69489 10.1485 9.69732C9.95604 9.69976 9.77211 9.77732 9.63598 9.91345C9.49985 10.0496 9.4223 10.2335 9.41986 10.426C9.41742 10.6185 9.4903 10.8044 9.62294 10.9439L11.4942 13.2173V14.2608C11.4942 14.9293 12.5795 15.9999 12.5795 15.9999" fill="#79DFC1"/>
<path d="M12.5377 11.826L10.6664 9.90041C10.5269 9.76776 10.341 9.69489 10.1485 9.69732C9.95604 9.69976 9.77211 9.77732 9.63598 9.91345C9.49985 10.0496 9.4223 10.2335 9.41986 10.426C9.41742 10.6185 9.4903 10.8044 9.62294 10.9439L11.4942 13.2173V14.2608C11.4942 14.9293 12.5795 15.9999 12.5795 15.9999" stroke="white" stroke-linecap="round" stroke-linejoin="round"/>
</svg>
