<svg width="16" height="16" viewBox="0 0 16 16" fill="none" xmlns="http://www.w3.org/2000/svg">
<path d="M1 8C1 7.44772 1.44772 7 2 7H5C5.55228 7 6 7.44772 6 8V16H1V8Z" fill="#0D6EFD"/>
<path fill-rule="evenodd" clip-rule="evenodd" d="M7 1C7 0.447715 7.44772 0 8 0H14C14.5523 0 15 0.447715 15 1V16H7V1ZM8.5 3C8.5 2.72386 8.72386 2.5 9 2.5H13C13.2761 2.5 13.5 2.72386 13.5 3C13.5 3.27614 13.2761 3.5 13 3.5H9C8.72386 3.5 8.5 3.27614 8.5 3ZM9 5.5C8.72386 5.5 8.5 5.72386 8.5 6C8.5 6.27614 8.72386 6.5 9 6.5H13C13.2761 6.5 13.5 6.27614 13.5 6C13.5 5.72386 13.2761 5.5 13 5.5H9ZM8.5 9C8.5 8.72386 8.72386 8.5 9 8.5H13C13.2761 8.5 13.5 8.72386 13.5 9C13.5 9.27614 13.2761 9.5 13 9.5H9C8.72386 9.5 8.5 9.27614 8.5 9ZM9 11.5C8.72386 11.5 8.5 11.7239 8.5 12C8.5 12.2761 8.72386 12.5 9 12.5H13C13.2761 12.5 13.5 12.2761 13.5 12C13.5 11.7239 13.2761 11.5 13 11.5H9Z" fill="#6EA8FE"/>
<rect y="15" width="16" height="1" rx="0.5" fill="#0D6EFD"/>
</svg>
