<svg width="16" height="16" viewBox="0 0 16 16" fill="none" xmlns="http://www.w3.org/2000/svg">
<path d="M4.52175 9.0435C7.01904 9.0435 9.0435 7.01904 9.0435 4.52175C9.0435 2.02446 7.01904 0 4.52175 0C2.02446 0 0 2.02446 0 4.52175C0 7.01904 2.02446 9.0435 4.52175 9.0435Z" fill="#FD7E14"/>
<path fill-rule="evenodd" clip-rule="evenodd" d="M11.6396 15.0832C11.0525 15.6702 10.2563 16.0001 9.42605 16.0001C8.5958 16.0001 7.79956 15.6702 7.21248 15.0832C6.62541 14.4961 6.29559 13.6998 6.29559 12.8696C6.29559 12.0394 6.62541 11.2431 7.21248 10.656L8.58067 9.28784L8.58071 9.28788L13.0078 13.715L11.6396 15.0832ZM10.656 7.21254L9.28778 8.58073L9.28782 8.58077L13.7149 13.0079L15.0831 11.6397C15.6702 11.0526 16 10.2564 16 9.42611C16 8.59587 15.6702 7.79962 15.0831 7.21254C14.496 6.62547 13.6998 6.29565 12.8695 6.29565C12.0393 6.29565 11.243 6.62547 10.656 7.21254ZM12.6279 8.21057C12.8683 8.16276 13.1175 8.18732 13.344 8.28116C13.5991 8.38687 13.8916 8.26576 13.9973 8.01065C14.103 7.75554 13.9819 7.46304 13.7268 7.35733C13.3176 7.18776 12.8672 7.14338 12.4328 7.22979C11.9984 7.3162 11.5993 7.52952 11.2861 7.84278C11.0909 8.03806 11.0909 8.35464 11.2862 8.54988C11.4815 8.74512 11.7981 8.74509 11.9933 8.5498C12.1666 8.37645 12.3875 8.25839 12.6279 8.21057Z" fill="#FEB272"/>
<rect x="1" y="4" width="7" height="1" rx="0.5" fill="white"/>
</svg>
