<svg width="16" height="16" viewBox="0 0 16 16" fill="none" xmlns="http://www.w3.org/2000/svg">
<path fill-rule="evenodd" clip-rule="evenodd" d="M16 8C16 12.4183 12.4183 16 8 16C3.58172 16 0 12.4183 0 8C0 3.58172 3.58172 0 8 0C12.4183 0 16 3.58172 16 8ZM11.2627 5.44437C11.4579 5.24911 11.4579 4.93253 11.2627 4.73727C11.0674 4.542 10.7508 4.542 10.5556 4.73727L4.73739 10.5554C4.54213 10.7507 4.54213 11.0673 4.73739 11.2626C4.93265 11.4578 5.24923 11.4578 5.4445 11.2626L11.2627 5.44437ZM5.8182 5.22729C5.49185 5.22729 5.22729 5.49185 5.22729 5.8182C5.22729 6.14455 5.49185 6.40911 5.8182 6.40911C6.14455 6.40911 6.40911 6.14455 6.40911 5.8182C6.40911 5.49185 6.14455 5.22729 5.8182 5.22729ZM4.22729 5.8182C4.22729 4.93957 4.93957 4.22729 5.8182 4.22729C6.69684 4.22729 7.40911 4.93957 7.40911 5.8182C7.40911 6.69684 6.69684 7.40911 5.8182 7.40911C4.93957 7.40911 4.22729 6.69684 4.22729 5.8182ZM9.59094 10.1817C9.59094 9.85538 9.8555 9.59082 10.1819 9.59082C10.5082 9.59082 10.7728 9.85538 10.7728 10.1817C10.7728 10.5081 10.5082 10.7726 10.1819 10.7726C9.8555 10.7726 9.59094 10.5081 9.59094 10.1817ZM10.1819 8.59082C9.30322 8.59082 8.59094 9.30309 8.59094 10.1817C8.59094 11.0604 9.30322 11.7726 10.1819 11.7726C11.0605 11.7726 11.7728 11.0604 11.7728 10.1817C11.7728 9.30309 11.0605 8.59082 10.1819 8.59082Z" fill="#DC3545"/>
</svg>
