<svg width="18" height="18" viewBox="0 0 18 18" fill="none" xmlns="http://www.w3.org/2000/svg">
<path d="M3.08696 17L2.73913 12.8261H1V10.3913C1 9.46885 1.36646 8.58415 2.01876 7.93184C2.67106 7.27954 3.55577 6.91309 4.47826 6.91309C5.40075 6.91309 6.28546 7.27954 6.93776 7.93184C7.59006 8.58415 7.95652 9.46885 7.95652 10.3913V12.8261H6.21739L5.86957 17H3.08696Z" fill="#0D6EFD" stroke="#0D6EFD" stroke-linecap="round" stroke-linejoin="round"/>
<path d="M4.47824 5.86957C5.82293 5.86957 6.91302 4.77948 6.91302 3.43478C6.91302 2.09009 5.82293 1 4.47824 1C3.13355 1 2.04346 2.09009 2.04346 3.43478C2.04346 4.77948 3.13355 5.86957 4.47824 5.86957Z" fill="#0D6EFD" stroke="#0D6EFD" stroke-linecap="round" stroke-linejoin="round"/>
<path d="M14.9131 9.34772C15.7775 9.34772 16.4783 8.64695 16.4783 7.7825C16.4783 6.91806 15.7775 6.21729 14.9131 6.21729C14.0486 6.21729 13.3478 6.91806 13.3478 7.7825C13.3478 8.64695 14.0486 9.34772 14.9131 9.34772Z" fill="#6EA8FE" stroke="#6EA8FE" stroke-linecap="round" stroke-linejoin="round"/>
<path d="M14.9131 10.0435C14.3596 10.0435 13.8287 10.2633 13.4374 10.6547C13.046 11.0461 12.8261 11.5769 12.8261 12.1304V13.8695H13.8696L14.2174 17H15.6087L15.9565 13.8695H17V12.1304C17 11.5769 16.7801 11.0461 16.3888 10.6547C15.9974 10.2633 15.4666 10.0435 14.9131 10.0435Z" fill="#6EA8FE" stroke="#6EA8FE" stroke-linecap="round" stroke-linejoin="round"/>
<path d="M11.5864 4.91159C11.554 4.94547 11.515 4.97242 11.4718 4.99084C11.4287 5.00926 11.3822 5.01875 11.3353 5.01875C11.2884 5.01875 11.2419 5.00926 11.1988 4.99084C11.1556 4.97242 11.1166 4.94547 11.0842 4.91159L9.64139 3.40689C9.49267 3.25815 9.39451 3.06639 9.3608 2.85877C9.32709 2.65114 9.35954 2.43818 9.45357 2.25002C9.52456 2.1079 9.62832 1.98469 9.75628 1.89055C9.88425 1.79641 10.0328 1.73403 10.1896 1.70855C10.3464 1.68307 10.507 1.69523 10.6582 1.74401C10.8094 1.7928 10.9468 1.87682 11.0591 1.98915L11.3374 2.26741L11.6157 1.98915C11.7279 1.87682 11.8653 1.79279 12.0164 1.744C12.1676 1.69521 12.3281 1.68305 12.4849 1.70853C12.6417 1.73402 12.7901 1.7964 12.918 1.89055C13.0459 1.9847 13.1496 2.10791 13.2205 2.25002C13.3145 2.43818 13.347 2.65114 13.3133 2.85877C13.2796 3.06639 13.1814 3.25815 13.0327 3.40689L11.5864 4.91159Z" fill="#6EA8FE" stroke="#6EA8FE" stroke-linecap="round" stroke-linejoin="round"/>
</svg>
